<svg width="24" height="24" viewBox="0 0 24 24" fill="none" xmlns="http://www.w3.org/2000/svg">
<path fill-rule="evenodd" clip-rule="evenodd" d="M8.84507 7.90501C8.9857 8.04546 9.17632 8.12435 9.37507 8.12435C9.57382 8.12435 9.76445 8.04546 9.90507 7.90501L11.6251 6.18501V14.375C11.6251 14.5739 11.7041 14.7647 11.8447 14.9053C11.9854 15.046 12.1762 15.125 12.3751 15.125C12.574 15.125 12.7648 15.046 12.9054 14.9053C13.0461 14.7647 13.1251 14.5739 13.1251 14.375V6.18501L14.8451 7.90501C14.9137 7.9787 14.9965 8.0378 15.0885 8.07879C15.1805 8.11978 15.2798 8.14183 15.3806 8.1436C15.4813 8.14538 15.5813 8.12686 15.6747 8.08913C15.7681 8.05141 15.8529 7.99527 15.9241 7.92405C15.9953 7.85283 16.0515 7.768 16.0892 7.67461C16.1269 7.58122 16.1454 7.48119 16.1437 7.38049C16.1419 7.27979 16.1198 7.18047 16.0789 7.08847C16.0379 6.99647 15.9788 6.91367 15.9051 6.84501L12.9051 3.84501C12.7644 3.70456 12.5738 3.62567 12.3751 3.62567C12.1763 3.62567 11.9857 3.70456 11.8451 3.84501L8.84507 6.84501C8.70462 6.98564 8.62573 7.17626 8.62573 7.37501C8.62573 7.57376 8.70462 7.76439 8.84507 7.90501Z" fill="white"/>
<path d="M12.375 20.375C14.4967 20.375 16.5316 19.5321 18.0319 18.0319C19.5321 16.5316 20.375 14.4967 20.375 12.375H16.625C15.682 12.375 15.211 12.375 14.918 12.668C14.625 12.961 14.625 13.432 14.625 14.375C14.625 14.9717 14.3879 15.544 13.966 15.966C13.544 16.3879 12.9717 16.625 12.375 16.625C11.7783 16.625 11.206 16.3879 10.784 15.966C10.3621 15.544 10.125 14.9717 10.125 14.375C10.125 13.432 10.125 12.961 9.832 12.668C9.539 12.375 9.068 12.375 8.125 12.375H4.375C4.375 14.4967 5.21785 16.5316 6.71815 18.0319C8.21844 19.5321 10.2533 20.375 12.375 20.375Z" fill="white"/>
</svg>
